<svg xmlns="http://www.w3.org/2000/svg" viewBox="0 0 512 512">
  <defs>
    <linearGradient id="ring" x1="126" y1="102" x2="386" y2="410" gradientUnits="userSpaceOnUse">
      <stop offset="0" stop-color="#5f9ed8"/>
      <stop offset="0.45" stop-color="#1f5f9f"/>
      <stop offset="1" stop-color="#0b2340"/>
    </linearGradient>
    <linearGradient id="shine" x1="156" y1="121" x2="333" y2="255" gradientUnits="userSpaceOnUse">
      <stop offset="0" stop-color="#b8dcff" stop-opacity="0.95"/>
      <stop offset="1" stop-color="#ffffff" stop-opacity="0"/>
    </linearGradient>
    <filter id="soft" x="-20%" y="-20%" width="140%" height="140%">
      <feDropShadow dx="0" dy="8" stdDeviation="10" flood-color="#06172b" flood-opacity="0.28"/>
    </filter>
  </defs>
  <path filter="url(#soft)" fill="url(#ring)" fill-rule="evenodd" d="M256 44c117.1 0 212 94.9 212 212s-94.9 212-212 212S44 373.1 44 256 138.9 44 256 44Zm0 72c-77.3 0-140 62.7-140 140s62.7 140 140 140 140-62.7 140-140-62.7-140-140-140Z"/>
  <path fill="url(#shine)" fill-rule="evenodd" d="M256 58c107.7 0 195 87.3 195 195 0 11.6-9.4 21-21 21s-21-9.4-21-21c0-84.5-68.5-153-153-153-62.9 0-117 38-140.5 92.3-4.6 10.6-16.9 15.5-27.6 10.9-10.6-4.6-15.5-16.9-10.9-27.6C106.9 106.4 176 58 256 58Z"/>
  <path d="M145 259c0-34.4 15.5-65.2 39.9-85.7" fill="none" stroke="#8fc5f4" stroke-width="7" stroke-linecap="round" opacity="0.75"/>
  <path d="M362 180c19.3 20 31.2 47.1 31.2 77" fill="none" stroke="#8fc5f4" stroke-width="7" stroke-linecap="round" opacity="0.5"/>
  <path d="M164 318c19.5 29.4 53 48.8 91 48.8" fill="none" stroke="#8fc5f4" stroke-width="6" stroke-linecap="round" opacity="0.42"/>
  <circle cx="196" cy="165" r="8" fill="#9ed0fb"/>
  <circle cx="361" cy="181" r="7" fill="#8bc2f0"/>
  <circle cx="164" cy="318" r="6" fill="#8bc2f0"/>
</svg>
